# xmcd CD database file
#
# Track frame offsets:
#	150
#	15987
#	34987
#	54525
#	72587
#	87475
#	107562
#	121487
#	138775
#	152862
#	171175
#
# Disc length: 2520 seconds
#
# Revision: 7
# Processed by: cddbd v1.5.2PL0 Copyright (c) Steve Scherf et al.
# Submitted via: CDex 1.79
#
DISCID=9209d60b
DTITLE=Kellie Coffey - When You Lie Next To Me
DYEAR=2002
DGENRE=Country
TTITLE0=Bluer Skies
TTITLE1=Why Wyoming
TTITLE2=At The End Of The Day
TTITLE3=When You Lie Next To Me
TTITLE4=What It's Like To Be Me
TTITLE5=Fingerprints
TTITLE6=The Simple Truth
TTITLE7=Whatever It Takes
TTITLE8=I Just Knew
TTITLE9=Love's Funny That Way
TTITLE10=Outside Looking In
EXTD=YEAR: 2002
EXTT0=
EXTT1=
EXTT2=
EXTT3=
EXTT4=
EXTT5=
EXTT6=
EXTT7=
EXTT8=
EXTT9=
EXTT10=
PLAYORDER=
